<svg xmlns="http://www.w3.org/2000/svg" viewBox="0 0 33 23.25"><defs><style>.cls-1{fill:#fff;}</style></defs><g id="圖層_2" data-name="圖層 2"><g id="Layer_1" data-name="Layer 1"><path class="cls-1" d="M32.31,3.63A4.17,4.17,0,0,0,29.39.69C26.82,0,16.5,0,16.5,0S6.18,0,3.61.69A4.17,4.17,0,0,0,.69,3.63a43.43,43.43,0,0,0-.69,8,43.52,43.52,0,0,0,.69,8,4.17,4.17,0,0,0,2.92,2.94c2.57.69,12.89.69,12.89.69s10.32,0,12.89-.69a4.17,4.17,0,0,0,2.92-2.94,43.52,43.52,0,0,0,.69-8A43.43,43.43,0,0,0,32.31,3.63ZM13.13,16.53V6.72l8.62,4.91Z"/></g></g></svg>